<?xml version="1.0" encoding="UTF-8" standalone="no"?>
<svg version="1.1" viewBox="0.0 0.0 192.0 192.0" fill="none" stroke="none" stroke-linecap="square" stroke-miterlimit="10" xmlns:xlink="http://www.w3.org/1999/xlink" xmlns="http://www.w3.org/2000/svg"><clipPath id="p.0"><path d="m0 0l192.0 0l0 192.0l-192.0 0l0 -192.0z" clip-rule="nonzero"/></clipPath><g clip-path="url(#p.0)"><path fill="#000000" fill-opacity="0.0" d="m0 0l192.0 0l0 192.0l-192.0 0z" fill-rule="evenodd"/><path fill="#000000" d="m11.981627 22.908136l168.25197 0l0 18.141733l-168.25197 0z" fill-rule="evenodd"/><path fill="#000000" d="m13.283649 52.39847l0 0c0 -0.91034317 0.7379818 -1.6483269 1.6483278 -1.6483269l19.97894 0c0.4371605 0 0.8564186 0.1736641 1.1655426 0.48278427c0.30912018 0.309124 0.48278427 0.7283821 0.48278427 1.1655426l0 6.593113c0 0.91034317 -0.7379837 1.6483269 -1.6483269 1.6483269l-19.97894 0c-0.91034603 0 -1.6483278 -0.7379837 -1.6483278 -1.6483269z" fill-rule="evenodd"/><path fill="#000000" d="m48.876827 52.39847l0 0c0 -0.91034317 0.7379799 -1.6483269 1.6483269 -1.6483269l19.978935 0c0.4371643 0 0.8564224 0.1736641 1.1655426 0.48278427c0.30912018 0.309124 0.4827881 0.7283821 0.4827881 1.1655426l0 6.593113c0 0.91034317 -0.7379837 1.6483269 -1.6483307 1.6483269l-19.978935 0c-0.910347 0 -1.6483269 -0.7379837 -1.6483269 -1.6483269z" fill-rule="evenodd"/><path fill="#000000" d="m84.47 52.39847l0 0c0 -0.91034317 0.7379837 -1.6483269 1.6483307 -1.6483269l19.978935 0c0.4371643 0 0.8564224 0.1736641 1.1655426 0.48278427c0.30912018 0.309124 0.48278046 0.7283821 0.48278046 1.1655426l0 6.593113c0 0.91034317 -0.7379761 1.6483269 -1.648323 1.6483269l-19.978935 0c-0.910347 0 -1.6483307 -0.7379837 -1.6483307 -1.6483269z" fill-rule="evenodd"/><path fill="#000000" d="m120.06318 52.39847l0 0c0 -0.91034317 0.7379761 -1.6483269 1.648323 -1.6483269l19.978943 0c0.4371643 0 0.8564148 0.1736641 1.1655426 0.48278427c0.30911255 0.309124 0.48277283 0.7283821 0.48277283 1.1655426l0 6.593113c0 0.91034317 -0.7379761 1.6483269 -1.6483154 1.6483269l-19.978943 0c-0.910347 0 -1.648323 -0.7379837 -1.648323 -1.6483269z" fill-rule="evenodd"/><path fill="#000000" d="m155.65636 52.39847l0 0c0 -0.91034317 0.7379761 -1.6483269 1.6483307 -1.6483269l19.978928 0c0.4371643 0 0.85643005 0.1736641 1.1655426 0.48278427c0.3091278 0.309124 0.4827881 0.7283821 0.4827881 1.1655426l0 6.593113c0 0.91034317 -0.7379761 1.6483269 -1.6483307 1.6483269l-19.978928 0c-0.9103546 0 -1.6483307 -0.7379837 -1.6483307 -1.6483269z" fill-rule="evenodd"/><path fill="#666666" d="m13.176039 68.98586l0 0c0 -0.6494217 0.5264578 -1.1758804 1.1758757 -1.1758804l20.92384 0c0.31186295 0 0.61095047 0.12388611 0.8314705 0.34440613c0.22052002 0.22052002 0.34440613 0.51960754 0.34440613 0.8314743l0 4.7033615c0 0.6494217 -0.52645874 1.1758804 -1.1758766 1.1758804l-20.92384 0c-0.6494179 0 -1.1758757 -0.52645874 -1.1758757 -1.1758804z" fill-rule="evenodd"/><path fill="#666666" d="m48.769215 68.98586l0 0c0 -0.6494217 0.52645874 -1.1758804 1.1758766 -1.1758804l20.923836 0c0.31186676 0 0.6109543 0.12388611 0.8314743 0.34440613c0.22052002 0.22052002 0.34440613 0.51960754 0.34440613 0.8314743l0 4.7033615c0 0.6494217 -0.52645874 1.1758804 -1.1758804 1.1758804l-20.923836 0c-0.6494179 0 -1.1758766 -0.52645874 -1.1758766 -1.1758804z" fill-rule="evenodd"/><path fill="#666666" d="m84.36239 68.98586l0 0c0 -0.6494217 0.52645874 -1.1758804 1.1758804 -1.1758804l20.923836 0c0.31185913 0 0.61094666 0.12388611 0.8314667 0.34440613c0.22052002 0.22052002 0.34440613 0.51960754 0.34440613 0.8314743l0 4.7033615c0 0.6494217 -0.5264511 1.1758804 -1.1758728 1.1758804l-20.923836 0c-0.6494217 0 -1.1758804 -0.52645874 -1.1758804 -1.1758804z" fill-rule="evenodd"/><path fill="#666666" d="m119.95557 68.98586l0 0c0 -0.6494217 0.52645874 -1.1758804 1.1758728 -1.1758804l20.923843 0c0.31185913 0 0.61094666 0.12388611 0.8314667 0.34440613c0.22052002 0.22052002 0.34440613 0.51960754 0.34440613 0.8314743l0 4.7033615c0 0.6494217 -0.52645874 1.1758804 -1.1758728 1.1758804l-20.923843 0c-0.64941406 0 -1.1758728 -0.52645874 -1.1758728 -1.1758804z" fill-rule="evenodd"/><path fill="#666666" d="m155.54874 68.98586l0 0c0 -0.6494217 0.52645874 -1.1758804 1.1758881 -1.1758804l20.923828 0c0.31185913 0 0.61094666 0.12388611 0.8314667 0.34440613c0.22052002 0.22052002 0.34440613 0.51960754 0.34440613 0.8314743l0 4.7033615c0 0.6494217 -0.52645874 1.1758804 -1.1758728 1.1758804l-20.923828 0c-0.6494293 0 -1.1758881 -0.52645874 -1.1758881 -1.1758804z" fill-rule="evenodd"/><path fill="#666666" d="m13.176039 83.200745l0 0c0 -0.6494217 0.5264578 -1.1758728 1.1758757 -1.1758728l20.92384 0c0.31186295 0 0.61095047 0.12388611 0.8314705 0.34440613c0.22052002 0.22051239 0.34440613 0.51960754 0.34440613 0.8314667l0 4.7033615c0 0.6494217 -0.52645874 1.1758804 -1.1758766 1.1758804l-20.92384 0c-0.6494179 0 -1.1758757 -0.52645874 -1.1758757 -1.1758804z" fill-rule="evenodd"/><path fill="#666666" d="m48.769215 83.200745l0 0c0 -0.6494217 0.52645874 -1.1758728 1.1758766 -1.1758728l20.923836 0c0.31186676 0 0.6109543 0.12388611 0.8314743 0.34440613c0.22052002 0.22051239 0.34440613 0.51960754 0.34440613 0.8314667l0 4.7033615c0 0.6494217 -0.52645874 1.1758804 -1.1758804 1.1758804l-20.923836 0c-0.6494179 0 -1.1758766 -0.52645874 -1.1758766 -1.1758804z" fill-rule="evenodd"/><path fill="#666666" d="m84.36239 83.200745l0 0c0 -0.6494217 0.52645874 -1.1758728 1.1758804 -1.1758728l20.923836 0c0.31185913 0 0.61094666 0.12388611 0.8314667 0.34440613c0.22052002 0.22051239 0.34440613 0.51960754 0.34440613 0.8314667l0 4.7033615c0 0.6494217 -0.5264511 1.1758804 -1.1758728 1.1758804l-20.923836 0c-0.6494217 0 -1.1758804 -0.52645874 -1.1758804 -1.1758804z" fill-rule="evenodd"/><path fill="#666666" d="m119.95557 83.200745l0 0c0 -0.6494217 0.52645874 -1.1758728 1.1758728 -1.1758728l20.923843 0c0.31185913 0 0.61094666 0.12388611 0.8314667 0.34440613c0.22052002 0.22051239 0.34440613 0.51960754 0.34440613 0.8314667l0 4.7033615c0 0.6494217 -0.52645874 1.1758804 -1.1758728 1.1758804l-20.923843 0c-0.64941406 0 -1.1758728 -0.52645874 -1.1758728 -1.1758804z" fill-rule="evenodd"/><path fill="#666666" d="m155.54874 83.200745l0 0c0 -0.6494217 0.52645874 -1.1758728 1.1758881 -1.1758728l20.923828 0c0.31185913 0 0.61094666 0.12388611 0.8314667 0.34440613c0.22052002 0.22051239 0.34440613 0.51960754 0.34440613 0.8314667l0 4.7033615c0 0.6494217 -0.52645874 1.1758804 -1.1758728 1.1758804l-20.923828 0c-0.6494293 0 -1.1758881 -0.52645874 -1.1758881 -1.1758804z" fill-rule="evenodd"/><path fill="#666666" d="m13.176039 97.41563l0 0c0 -0.64941406 0.5264578 -1.1758728 1.1758757 -1.1758728l20.92384 0c0.31186295 0 0.61095047 0.12388611 0.8314705 0.34440613c0.22052002 0.22052002 0.34440613 0.51960754 0.34440613 0.8314667l0 4.703369c0 0.64941406 -0.52645874 1.1758728 -1.1758766 1.1758728l-20.92384 0c-0.6494179 0 -1.1758757 -0.52645874 -1.1758757 -1.1758728z" fill-rule="evenodd"/><path fill="#666666" d="m48.769215 97.41563l0 0c0 -0.64941406 0.52645874 -1.1758728 1.1758766 -1.1758728l20.923836 0c0.31186676 0 0.6109543 0.12388611 0.8314743 0.34440613c0.22052002 0.22052002 0.34440613 0.51960754 0.34440613 0.8314667l0 4.703369c0 0.64941406 -0.52645874 1.1758728 -1.1758804 1.1758728l-20.923836 0c-0.6494179 0 -1.1758766 -0.52645874 -1.1758766 -1.1758728z" fill-rule="evenodd"/><path fill="#666666" d="m84.36239 97.41563l0 0c0 -0.64941406 0.52645874 -1.1758728 1.1758804 -1.1758728l20.923836 0c0.31185913 0 0.61094666 0.12388611 0.8314667 0.34440613c0.22052002 0.22052002 0.34440613 0.51960754 0.34440613 0.8314667l0 4.703369c0 0.64941406 -0.5264511 1.1758728 -1.1758728 1.1758728l-20.923836 0c-0.6494217 0 -1.1758804 -0.52645874 -1.1758804 -1.1758728z" fill-rule="evenodd"/><path fill="#666666" d="m119.95557 97.41563l0 0c0 -0.64941406 0.52645874 -1.1758728 1.1758728 -1.1758728l20.923843 0c0.31185913 0 0.61094666 0.12388611 0.8314667 0.34440613c0.22052002 0.22052002 0.34440613 0.51960754 0.34440613 0.8314667l0 4.703369c0 0.64941406 -0.52645874 1.1758728 -1.1758728 1.1758728l-20.923843 0c-0.64941406 0 -1.1758728 -0.52645874 -1.1758728 -1.1758728z" fill-rule="evenodd"/><path fill="#666666" d="m155.54874 97.41563l0 0c0 -0.64941406 0.52645874 -1.1758728 1.1758881 -1.1758728l20.923828 0c0.31185913 0 0.61094666 0.12388611 0.8314667 0.34440613c0.22052002 0.22052002 0.34440613 0.51960754 0.34440613 0.8314667l0 4.703369c0 0.64941406 -0.52645874 1.1758728 -1.1758728 1.1758728l-20.923828 0c-0.6494293 0 -1.1758881 -0.52645874 -1.1758881 -1.1758728z" fill-rule="evenodd"/><path fill="#666666" d="m13.2834635 154.12074l0 0c0 -8.410385 6.4724817 -15.228348 14.456693 -15.228348l0 0c3.8341541 0 7.5112705 1.6044006 10.222425 4.4602814c2.711155 2.8558655 4.234268 6.729248 4.234268 10.768066l0 0c0 8.41037 -6.472481 15.2283325 -14.456694 15.2283325l0 0c-7.984211 0 -14.456693 -6.8179626 -14.456693 -15.2283325z" fill-rule="evenodd"/><path fill="#666666" d="m45.480255 152.24413l0 0c0 -0.6494293 0.5264549 -1.1758881 1.1758766 -1.1758881l49.52226 0c0.31186676 0 0.6109543 0.12388611 0.8314743 0.34440613c0.22052002 0.22052002 0.34440613 0.51960754 0.34440613 0.83148193l0 4.703354c0 0.6494293 -0.52645874 1.1758728 -1.1758804 1.1758728l-49.52226 0c-0.6494217 0 -1.1758766 -0.5264435 -1.1758766 -1.1758728z" fill-rule="evenodd"/><path fill="#666666" d="m120.06293 170.61945l0 0c0 -0.64941406 0.52645874 -1.1758728 1.1758728 -1.1758728l56.419907 0c0.31185913 0 0.61094666 0.12388611 0.8314667 0.34440613c0.22052002 0.22052002 0.34440613 0.51960754 0.34440613 0.8314667l0 4.703369c0 0.64941406 -0.52645874 1.1758728 -1.1758728 1.1758728l-56.419907 0c-0.64941406 0 -1.1758728 -0.52645874 -1.1758728 -1.1758728z" fill-rule="evenodd"/><path fill="#666666" d="m166.53326 140.9213l0 0c0 -1.1248779 0.911911 -2.0367737 2.036789 -2.0367737l8.2099 0l0 0c0.54019165 0 1.0582428 0.21458435 1.4402161 0.5965576c0.38197327 0.38197327 0.5965576 0.9000397 0.5965576 1.4402161l0 8.146912c0 1.1248779 -0.91189575 2.0367737 -2.0367737 2.0367737l-8.2099 0c-1.1248779 0 -2.036789 -0.91189575 -2.036789 -2.0367737z" fill-rule="evenodd"/><path fill="#666666" d="m151.03703 140.9213l0 0c0 -1.1248779 0.91189575 -2.0367737 2.036789 -2.0367737l8.209885 0l0 0c0.54019165 0 1.058258 0.21458435 1.4402313 0.5965576c0.38197327 0.38197327 0.5965576 0.9000397 0.5965576 1.4402161l0 8.146912c0 1.1248779 -0.91189575 2.0367737 -2.036789 2.0367737l-8.209885 0c-1.1248932 0 -2.036789 -0.91189575 -2.036789 -2.0367737z" fill-rule="evenodd"/><path fill="#666666" d="m135.54079 140.9213l0 0c0 -1.1248779 0.911911 -2.0367737 2.036789 -2.0367737l8.2099 0l0 0c0.5401764 0 1.0582428 0.21458435 1.4402161 0.5965576c0.38197327 0.38197327 0.5965576 0.9000397 0.5965576 1.4402161l0 8.146912c0 1.1248779 -0.91189575 2.0367737 -2.0367737 2.0367737l-8.2099 0c-1.1248779 0 -2.036789 -0.91189575 -2.036789 -2.0367737z" fill-rule="evenodd"/><path fill="#666666" d="m120.04455 140.9213l0 0c0 -1.1248779 0.9119034 -2.0367737 2.036789 -2.0367737l8.209892 0l0 0c0.54019165 0 1.058258 0.21458435 1.4402313 0.5965576c0.38197327 0.38197327 0.5965576 0.9000397 0.5965576 1.4402161l0 8.146912c0 1.1248779 -0.91189575 2.0367737 -2.036789 2.0367737l-8.209892 0c-1.1248856 0 -2.036789 -0.91189575 -2.036789 -2.0367737z" fill-rule="evenodd"/></g></svg>